<svg width="585" height="404" viewBox="0 0 585 404" fill="none" xmlns="http://www.w3.org/2000/svg">
<path d="M282.967 319.572C282.969 318.394 282.621 317.242 281.967 316.262C281.314 315.282 280.385 314.518 279.297 314.066C278.209 313.615 277.011 313.496 275.856 313.725C274.701 313.954 273.639 314.521 272.806 315.354C271.973 316.187 271.406 317.248 271.177 318.403C270.947 319.559 271.065 320.756 271.517 321.844C271.968 322.932 272.732 323.862 273.712 324.515C274.692 325.169 275.844 325.517 277.022 325.516C278.598 325.515 280.109 324.889 281.224 323.774C282.339 322.66 282.966 321.148 282.967 319.572Z" fill="#FFDD00"/>
<path d="M54.3326 129.697C54.4016 129.791 54.4896 129.87 54.5909 129.928C54.6922 129.986 54.8046 130.022 54.9207 130.034C55.0369 130.046 55.1542 130.034 55.2652 129.997C55.3762 129.961 55.4783 129.902 55.565 129.823C55.6516 129.745 55.7209 129.65 55.7683 129.543C55.8157 129.436 55.8402 129.321 55.8402 129.204C55.8402 129.087 55.8156 128.972 55.7682 128.865C55.7208 128.758 55.6515 128.663 55.5648 128.585L50.4373 122.927C50.3683 122.833 50.2803 122.754 50.179 122.696C50.0777 122.638 49.9653 122.602 49.8491 122.59C49.733 122.578 49.6156 122.591 49.5047 122.627C49.3937 122.664 49.2916 122.723 49.2049 122.801C49.1182 122.879 49.049 122.975 49.0016 123.082C48.9542 123.188 48.9297 123.304 48.9297 123.42C48.9297 123.537 48.9542 123.653 49.0017 123.759C49.0491 123.866 49.1184 123.962 49.2051 124.04L54.3326 129.697Z" fill="#121926"/>
<path d="M90.5789 148.355L90.8195 145.149C90.8339 145.037 90.8252 144.923 90.7941 144.814C90.7629 144.705 90.7099 144.604 90.6383 144.516C90.5666 144.428 90.4779 144.356 90.3774 144.303C90.2769 144.251 90.1668 144.22 90.0538 144.211C89.9408 144.203 89.8273 144.218 89.7202 144.254C89.613 144.291 89.5145 144.35 89.4307 144.426C89.3468 144.502 89.2794 144.595 89.2324 144.698C89.1855 144.801 89.16 144.912 89.1576 145.026L88.917 148.224C88.835 149.33 90.4927 149.465 90.5789 148.355Z" fill="#121926"/>
<path d="M427.649 370.502C433.427 370.502 437.655 365.874 437.09 360.18C436.525 354.487 431.395 349.874 425.602 349.874C419.808 349.874 415.588 354.487 416.161 360.18C416.734 365.874 421.872 370.502 427.649 370.502ZM426.134 355.218C428.916 355.218 431.395 357.451 431.662 360.18C431.929 362.91 429.914 365.159 427.116 365.159C424.318 365.159 421.872 362.934 421.588 360.18C421.304 357.427 423.354 355.218 426.134 355.218Z" fill="#FFDD00"/>
<path d="M554.493 354.975L549.338 352.505C549.238 352.449 549.128 352.414 549.014 352.402C548.901 352.39 548.786 352.402 548.677 352.436C548.568 352.471 548.467 352.527 548.381 352.602C548.295 352.677 548.225 352.769 548.176 352.872C548.126 352.975 548.099 353.087 548.094 353.201C548.09 353.315 548.109 353.429 548.151 353.535C548.192 353.642 548.255 353.738 548.336 353.819C548.416 353.901 548.512 353.964 548.618 354.007L553.774 356.477C553.873 356.533 553.983 356.568 554.097 356.579C554.211 356.591 554.325 356.58 554.434 356.545C554.543 356.511 554.644 356.454 554.73 356.379C554.817 356.305 554.886 356.213 554.936 356.11C554.985 356.007 555.013 355.895 555.017 355.78C555.021 355.666 555.002 355.553 554.96 355.446C554.919 355.34 554.856 355.243 554.776 355.162C554.695 355.081 554.599 355.017 554.493 354.975Z" fill="#121926"/>
<path d="M492.301 242.544C493.436 242.266 494.333 241.507 495.056 240.893C495.21 240.746 495.303 240.546 495.314 240.333C495.325 240.12 495.254 239.911 495.115 239.748C494.977 239.586 494.782 239.483 494.57 239.46C494.358 239.437 494.145 239.496 493.976 239.625C493.329 240.181 492.659 240.738 491.909 240.925C491.353 241.064 490.635 240.888 490.435 240.427C490.235 239.967 490.517 239.266 490.819 238.535C492.549 234.291 492.804 229.589 491.542 225.184C491.518 225.072 491.471 224.966 491.405 224.873C491.338 224.78 491.253 224.701 491.155 224.642C491.056 224.583 490.947 224.545 490.834 224.53C490.72 224.516 490.604 224.524 490.494 224.556C490.384 224.588 490.282 224.642 490.194 224.715C490.105 224.788 490.033 224.879 489.981 224.981C489.93 225.083 489.899 225.195 489.893 225.309C489.886 225.424 489.903 225.538 489.943 225.646C491.103 229.716 490.858 234.059 489.247 237.973C488.88 238.868 488.423 239.982 488.901 241.092C489.463 242.36 490.993 242.856 492.301 242.544Z" fill="#121926"/>
<path d="M502.172 224.634C497.253 222.687 494.415 224.643 494.296 224.729C494.208 224.791 494.132 224.87 494.074 224.962C494.016 225.053 493.976 225.155 493.958 225.262C493.939 225.368 493.941 225.478 493.965 225.583C493.989 225.689 494.033 225.789 494.095 225.878C494.22 226.058 494.411 226.183 494.628 226.223C494.844 226.263 495.067 226.217 495.249 226.093C495.341 226.032 497.535 224.602 501.564 226.182C501.765 226.242 501.98 226.224 502.168 226.133C502.356 226.041 502.503 225.882 502.579 225.688C502.656 225.493 502.656 225.277 502.581 225.082C502.505 224.887 502.359 224.727 502.172 224.634Z" fill="#121926"/>
<path d="M498.004 227.794C497.604 227.789 497.211 227.903 496.876 228.122C496.541 228.341 496.278 228.654 496.122 229.023C495.965 229.391 495.922 229.798 495.997 230.191C496.072 230.584 496.262 230.946 496.544 231.23C496.825 231.515 497.185 231.71 497.577 231.789C497.969 231.869 498.376 231.83 498.746 231.678C499.116 231.526 499.433 231.267 499.656 230.935C499.878 230.602 499.997 230.211 499.997 229.811C499.997 229.28 499.789 228.77 499.415 228.392C499.042 228.015 498.535 227.8 498.004 227.794Z" fill="#121926"/>
<path d="M483.785 227.794C483.385 227.789 482.992 227.903 482.657 228.122C482.322 228.341 482.059 228.654 481.903 229.023C481.746 229.391 481.703 229.798 481.778 230.191C481.853 230.584 482.044 230.946 482.325 231.23C482.606 231.515 482.966 231.71 483.358 231.789C483.75 231.869 484.157 231.83 484.527 231.678C484.898 231.526 485.214 231.267 485.437 230.935C485.659 230.602 485.778 230.211 485.778 229.811C485.779 229.28 485.57 228.77 485.197 228.392C484.823 228.015 484.316 227.8 483.785 227.794Z" fill="#121926"/>
<path d="M494.826 244.733C492.575 246.299 490.037 245.271 489.93 245.225C489.726 245.14 489.498 245.138 489.294 245.221C489.089 245.303 488.926 245.463 488.839 245.666C488.753 245.869 488.751 246.098 488.834 246.302C488.916 246.507 489.076 246.671 489.279 246.758C491.087 247.532 493.75 247.506 495.776 246.101C495.873 246.042 495.957 245.964 496.023 245.871C496.089 245.778 496.135 245.673 496.159 245.561C496.182 245.45 496.183 245.335 496.161 245.223C496.138 245.112 496.093 245.006 496.028 244.912C495.963 244.819 495.88 244.74 495.783 244.68C495.686 244.619 495.579 244.58 495.466 244.563C495.353 244.546 495.239 244.552 495.129 244.582C495.019 244.611 494.916 244.662 494.826 244.733Z" fill="#121926"/>
<path d="M351.036 160.995H206.913C206.691 160.995 206.479 161.083 206.323 161.24C206.166 161.396 206.078 161.608 206.078 161.83C206.078 162.051 206.166 162.263 206.323 162.42C206.479 162.576 206.691 162.664 206.913 162.664H351.036C351.257 162.664 351.47 162.576 351.626 162.42C351.783 162.263 351.87 162.051 351.87 161.83C351.87 161.608 351.783 161.396 351.626 161.24C351.47 161.083 351.257 160.995 351.036 160.995Z" fill="#121926"/>
<path d="M351.036 182.145H206.913C206.691 182.145 206.479 182.232 206.323 182.389C206.166 182.545 206.078 182.758 206.078 182.979C206.078 183.2 206.166 183.412 206.323 183.569C206.479 183.725 206.691 183.813 206.913 183.813H351.036C351.257 183.813 351.47 183.725 351.626 183.569C351.783 183.412 351.87 183.2 351.87 182.979C351.87 182.758 351.783 182.545 351.626 182.389C351.47 182.232 351.257 182.145 351.036 182.145Z" fill="#121926"/>
<path d="M351.036 203.294H206.913C206.691 203.294 206.479 203.382 206.323 203.538C206.166 203.695 206.078 203.907 206.078 204.128C206.078 204.35 206.166 204.562 206.323 204.718C206.479 204.875 206.691 204.963 206.913 204.963H351.036C351.257 204.963 351.47 204.875 351.626 204.718C351.783 204.562 351.87 204.35 351.87 204.128C351.87 203.907 351.783 203.695 351.626 203.538C351.47 203.382 351.257 203.294 351.036 203.294Z" fill="#121926"/>
<path d="M351.036 224.442H206.913C206.691 224.442 206.479 224.53 206.323 224.687C206.166 224.843 206.078 225.055 206.078 225.277C206.078 225.498 206.166 225.71 206.323 225.867C206.479 226.023 206.691 226.111 206.913 226.111H351.036C351.257 226.111 351.47 226.023 351.626 225.867C351.783 225.71 351.87 225.498 351.87 225.277C351.87 225.055 351.783 224.843 351.626 224.687C351.47 224.53 351.257 224.442 351.036 224.442Z" fill="#121926"/>
<path d="M351.036 245.593H206.913C206.691 245.593 206.479 245.681 206.323 245.837C206.166 245.994 206.078 246.206 206.078 246.427C206.078 246.648 206.166 246.861 206.323 247.017C206.479 247.174 206.691 247.262 206.913 247.262H351.036C351.257 247.262 351.47 247.174 351.626 247.017C351.783 246.861 351.87 246.648 351.87 246.427C351.87 246.206 351.783 245.994 351.626 245.837C351.47 245.681 351.257 245.593 351.036 245.593Z" fill="#121926"/>
<path d="M206.913 69.619H270.598C270.819 69.619 271.032 69.5311 271.188 69.3746C271.345 69.2181 271.433 69.0059 271.433 68.7846C271.433 68.5633 271.345 68.3511 271.188 68.1946C271.032 68.0381 270.819 67.9502 270.598 67.9502H206.913C206.691 67.9502 206.479 68.0381 206.323 68.1946C206.166 68.3511 206.078 68.5633 206.078 68.7846C206.078 69.0059 206.166 69.2181 206.323 69.3746C206.479 69.5311 206.691 69.619 206.913 69.619Z" fill="#121926"/>
<path d="M270.598 90.3319C270.819 90.3319 271.032 90.244 271.188 90.0875C271.345 89.931 271.433 89.7188 271.433 89.4975C271.433 89.2762 271.345 89.064 271.188 88.9075C271.032 88.751 270.819 88.6631 270.598 88.6631H206.913C206.691 88.6631 206.479 88.751 206.323 88.9075C206.166 89.064 206.078 89.2762 206.078 89.4975C206.078 89.7188 206.166 89.931 206.323 90.0875C206.479 90.244 206.691 90.3319 206.913 90.3319H270.598Z" fill="#121926"/>
<path d="M270.602 111.048C270.824 111.048 271.036 110.96 271.192 110.803C271.349 110.647 271.437 110.435 271.437 110.213C271.437 109.992 271.349 109.78 271.192 109.623C271.036 109.467 270.824 109.379 270.602 109.379H246.186C245.965 109.379 245.752 109.467 245.596 109.623C245.439 109.78 245.352 109.992 245.352 110.213C245.352 110.435 245.439 110.647 245.596 110.803C245.752 110.96 245.965 111.048 246.186 111.048H270.602Z" fill="#121926"/>
<rect x="300" y="63" width="49" height="58" fill="#121926"/>
<path d="M322.628 75.9365L314.797 91.9421H330.46L322.628 75.9365Z" fill="#FFDD00"/>
<path d="M290.889 126.638H354.373C354.594 126.638 354.807 126.55 354.963 126.393C355.12 126.237 355.207 126.024 355.207 125.803V58.1401C355.204 57.9198 355.115 57.7094 354.96 57.5536C354.804 57.3978 354.593 57.3089 354.373 57.3057H290.889C290.669 57.3089 290.458 57.3978 290.303 57.5536C290.147 57.7094 290.058 57.9198 290.055 58.1401V125.803C290.055 126.024 290.143 126.237 290.299 126.393C290.456 126.55 290.668 126.638 290.889 126.638ZM304.946 104.505L321.133 71.4185C321.689 70.2767 323.565 70.2767 324.124 71.4185L340.317 104.505C340.48 104.897 340.487 105.336 340.336 105.734C340.186 106.131 339.89 106.456 339.508 106.642C339.127 106.829 338.689 106.863 338.283 106.737C337.877 106.612 337.534 106.337 337.325 105.968L334.834 100.879C333.156 97.449 329.67 95.2745 325.852 95.2745H319.41C315.591 95.2745 312.105 97.4494 310.427 100.88L307.938 105.968C307.851 106.179 307.722 106.371 307.559 106.531C307.395 106.691 307.201 106.815 306.987 106.897C306.773 106.978 306.545 107.015 306.317 107.005C306.088 106.995 305.864 106.937 305.659 106.837C305.454 106.736 305.271 106.595 305.123 106.421C304.974 106.247 304.863 106.044 304.796 105.825C304.729 105.607 304.708 105.377 304.734 105.149C304.76 104.922 304.832 104.703 304.946 104.505Z" fill="#FFDD00"/>
<path d="M463.038 111.168C462.816 111.168 462.604 111.256 462.448 111.412C462.291 111.569 462.203 111.781 462.203 112.002V168.326C462.203 168.547 462.291 168.759 462.448 168.916C462.604 169.072 462.816 169.16 463.038 169.16H489.802L499.553 182.75C499.672 182.917 499.849 183.033 500.049 183.077C500.249 183.12 500.458 183.087 500.635 182.984C505.051 182.881 505.324 183.216 505.735 182.682L515.439 169.16C552.037 169.103 550.408 169.401 550.408 168.326V112.002C550.409 111.908 550.391 111.813 550.355 111.726C550.319 111.638 550.266 111.558 550.199 111.491C550.132 111.424 550.052 111.371 549.965 111.335C549.877 111.299 549.783 111.281 549.688 111.282L463.038 111.168ZM543.941 167.491H510.231C510.099 167.491 509.969 167.523 509.851 167.583C509.734 167.643 509.632 167.73 509.555 167.838L500.237 180.832L490.913 167.838C490.835 167.73 490.734 167.643 490.616 167.583C490.498 167.523 490.368 167.491 490.235 167.491H463.872V112.837H543.944L543.941 167.491Z" fill="#121926"/>
<path d="M46.3073 54.9596H98.0413L107.794 68.5495C107.913 68.7161 108.089 68.8324 108.289 68.8756C108.489 68.9189 108.698 68.8859 108.875 68.7832H113.385C113.5 68.7813 113.613 68.7531 113.715 68.7008C113.818 68.6485 113.907 68.5734 113.976 68.4814L123.68 54.9596L132.955 54.8484C133.05 54.8493 133.144 54.8313 133.232 54.7954C133.319 54.7596 133.399 54.7065 133.466 54.6394C133.533 54.5724 133.586 54.4926 133.622 54.4048C133.658 54.3169 133.676 54.2228 133.675 54.128V7.7969C133.676 7.70204 133.658 7.60794 133.622 7.52012C133.586 7.4323 133.533 7.35252 133.466 7.28544C133.399 7.21836 133.319 7.16533 133.232 7.12946C133.144 7.09358 133.05 7.07558 132.955 7.07651L46.3032 6.96387C46.0819 6.96387 45.8696 7.05178 45.7131 7.20826C45.5567 7.36475 45.4688 7.57698 45.4688 7.79829V54.1266C45.4689 54.2364 45.4908 54.3451 45.5331 54.4465C45.5753 54.5478 45.6372 54.6398 45.7151 54.7172C45.793 54.7946 45.8854 54.8558 45.9871 54.8974C46.0887 54.939 46.1975 54.9602 46.3073 54.9596ZM47.1418 8.62853H127.214V53.295H118.476C118.344 53.2949 118.214 53.3262 118.096 53.3864C117.978 53.4466 117.876 53.534 117.799 53.6412L108.481 66.6359L99.1497 53.6412C99.0725 53.5342 98.9709 53.447 98.8534 53.3868C98.7359 53.3266 98.6058 53.2951 98.4738 53.295H47.1404L47.1418 8.62853Z" fill="#121926"/>
<path d="M67.0099 23.1836C65.7627 23.1833 64.5435 23.5529 63.5063 24.2457C62.4692 24.9384 61.6608 25.9232 61.1834 27.0754C60.706 28.2276 60.581 29.4955 60.8242 30.7188C61.0675 31.9421 61.668 33.0657 62.5499 33.9476C63.4319 34.8295 64.5555 35.4301 65.7788 35.6734C67.002 35.9166 68.27 35.7916 69.4222 35.3142C70.5744 34.8368 71.5592 34.0284 72.2519 32.9913C72.9446 31.9541 73.3143 30.7348 73.314 29.4876C73.3125 27.8161 72.6479 26.2135 71.4659 25.0316C70.284 23.8497 68.6814 23.1851 67.0099 23.1836Z" fill="#FFDD00"/>
<path d="M87.174 23.1836C85.9268 23.1833 84.7075 23.5529 83.6704 24.2457C82.6332 24.9384 81.8248 25.9232 81.3474 27.0754C80.87 28.2276 80.745 29.4955 80.9883 30.7188C81.2315 31.9421 81.8321 33.0657 82.714 33.9476C83.5959 34.8295 84.7196 35.4301 85.9428 35.6734C87.1661 35.9166 88.434 35.7916 89.5862 35.3142C90.7385 34.8368 91.7232 34.0284 92.416 32.9913C93.1087 31.9541 93.4783 30.7348 93.478 29.4876C93.4766 27.8161 92.8119 26.2135 91.63 25.0316C90.4481 23.8497 88.8455 23.1851 87.174 23.1836Z" fill="#FFDD00"/>
<path d="M107.336 35.7935C108.584 35.7951 109.804 35.4267 110.842 34.7349C111.88 34.043 112.689 33.0588 113.168 31.9068C113.646 30.7548 113.772 29.4867 113.53 28.263C113.287 27.0394 112.688 25.9151 111.806 25.0324C110.925 24.1497 109.801 23.5484 108.578 23.3044C107.354 23.0604 106.086 23.1848 104.933 23.6618C103.781 24.1388 102.796 24.947 102.102 25.9841C101.409 27.0212 101.039 28.2406 101.039 29.488C101.039 30.3155 101.201 31.135 101.517 31.8997C101.833 32.6645 102.297 33.3594 102.882 33.9449C103.466 34.5304 104.161 34.995 104.925 35.3122C105.689 35.6294 106.509 35.7929 107.336 35.7935Z" fill="#FFDD00"/>
<path d="M486.413 127.912H519.475C519.696 127.912 519.909 127.824 520.065 127.668C520.222 127.511 520.309 127.299 520.309 127.078C520.309 126.856 520.222 126.644 520.065 126.488C519.909 126.331 519.696 126.243 519.475 126.243H486.413C486.191 126.243 485.979 126.331 485.823 126.488C485.666 126.644 485.578 126.856 485.578 127.078C485.578 127.299 485.666 127.511 485.823 127.668C485.979 127.824 486.191 127.912 486.413 127.912Z" fill="#121926"/>
<path d="M475.288 135.407H530.598C530.82 135.407 531.032 135.319 531.188 135.163C531.345 135.006 531.433 134.794 531.433 134.573C531.433 134.351 531.345 134.139 531.188 133.983C531.032 133.826 530.82 133.738 530.598 133.738H475.288C475.066 133.738 474.854 133.826 474.698 133.983C474.541 134.139 474.453 134.351 474.453 134.573C474.453 134.794 474.541 135.006 474.698 135.163C474.854 135.319 475.066 135.407 475.288 135.407Z" fill="#FFDD00"/>
<path d="M475.288 143.394H530.598C530.82 143.394 531.032 143.307 531.188 143.15C531.345 142.994 531.433 142.781 531.433 142.56C531.433 142.339 531.345 142.126 531.188 141.97C531.032 141.813 530.82 141.726 530.598 141.726H475.288C475.066 141.726 474.854 141.813 474.698 141.97C474.541 142.126 474.453 142.339 474.453 142.56C474.453 142.781 474.541 142.994 474.698 143.15C474.854 143.307 475.066 143.394 475.288 143.394Z" fill="#FFDD00"/>
<path d="M475.288 151.378H530.598C530.82 151.378 531.032 151.29 531.188 151.133C531.345 150.977 531.433 150.765 531.433 150.543C531.433 150.322 531.345 150.11 531.188 149.953C531.032 149.797 530.82 149.709 530.598 149.709H475.288C475.066 149.709 474.854 149.797 474.698 149.953C474.541 150.11 474.453 150.322 474.453 150.543C474.453 150.765 474.541 150.977 474.698 151.133C474.854 151.29 475.066 151.378 475.288 151.378Z" fill="#121926"/>
<path d="M382.238 338.826C382.191 338.611 382.06 338.423 381.874 338.304C381.689 338.185 381.463 338.144 381.248 338.191C381.033 338.238 380.845 338.369 380.726 338.555C380.607 338.74 380.566 338.965 380.612 339.181L391.472 389.119C391.706 390.193 393.332 389.844 393.098 388.765L382.238 338.826Z" fill="#121926"/>
<circle cx="464.5" cy="29.5" r="22.5" fill="#121926"/>
<path d="M464.028 56.0451C479.505 56.0451 492.055 43.508 492.055 28.017C492.055 12.526 479.505 0 464.028 0C448.551 0 436 12.5371 436 28.0142C436 43.4913 448.551 56.0451 464.028 56.0451ZM466.595 37.8882C466.087 38.3959 465.44 38.7416 464.736 38.8816C464.032 39.0217 463.302 38.9497 462.638 38.6749C461.975 38.4 461.408 37.9346 461.009 37.3375C460.61 36.7404 460.397 36.0384 460.397 35.3202C460.397 34.6021 460.61 33.9001 461.009 33.303C461.408 32.7059 461.975 32.2405 462.638 31.9656C463.302 31.6908 464.032 31.6188 464.736 31.7588C465.44 31.8989 466.087 32.2446 466.595 32.7523C466.934 33.0884 467.203 33.4883 467.386 33.9287C467.57 34.3692 467.664 34.8417 467.664 35.3188C467.664 35.796 467.57 36.2685 467.386 36.709C467.203 37.1494 466.934 37.5493 466.595 37.8854V37.8882ZM472.051 30.2393C471.895 30.3952 471.683 30.4827 471.462 30.4827C471.241 30.4827 471.03 30.3952 470.873 30.2393C469.974 29.3396 468.907 28.6258 467.732 28.1387C466.558 27.6517 465.298 27.401 464.027 27.401C462.755 27.401 461.496 27.6517 460.321 28.1387C459.146 28.6258 458.079 29.3396 457.18 30.2393C457.021 30.3804 456.814 30.4554 456.602 30.449C456.389 30.4426 456.187 30.3554 456.037 30.205C455.886 30.0546 455.799 29.8525 455.793 29.64C455.786 29.4275 455.861 29.2205 456.002 29.0614C457.056 28.0071 458.307 27.1708 459.684 26.6002C461.061 26.0296 462.536 25.7359 464.027 25.7359C465.517 25.7359 466.993 26.0296 468.37 26.6002C469.747 27.1708 470.998 28.0071 472.051 29.0614C472.206 29.2176 472.292 29.4285 472.292 29.6483C472.292 29.868 472.206 30.0789 472.051 30.2352V30.2393ZM474.607 26.5067C473.218 25.1168 471.569 24.0142 469.754 23.2619C467.939 22.5096 465.993 22.1225 464.028 22.1225C462.063 22.1225 460.118 22.5096 458.302 23.2619C456.487 24.0142 454.838 25.1168 453.449 26.5067C453.29 26.6455 453.084 26.7188 452.872 26.7116C452.661 26.7044 452.461 26.6173 452.311 26.468C452.162 26.3187 452.074 26.1182 452.067 25.907C452.06 25.6958 452.133 25.4896 452.271 25.3302C453.814 23.7851 455.647 22.5595 457.664 21.7232C459.681 20.8869 461.844 20.4565 464.027 20.4565C466.211 20.4565 468.373 20.8869 470.391 21.7232C472.408 22.5595 474.24 23.7851 475.784 25.3302C476.562 26.1048 475.386 27.2813 474.607 26.5025V26.5067ZM448.54 21.5975C450.573 19.5621 452.987 17.9473 455.645 16.8456C458.303 15.7439 461.151 15.1769 464.028 15.1769C466.905 15.1769 469.754 15.7439 472.411 16.8456C475.069 17.9473 477.483 19.5621 479.516 21.5975C480.296 22.3763 479.119 23.5529 478.34 22.7741C476.461 20.8935 474.23 19.4017 471.774 18.3839C469.319 17.366 466.686 16.8421 464.028 16.8421C461.37 16.8421 458.738 17.366 456.282 18.3839C453.826 19.4017 451.595 20.8935 449.716 22.7741C449.557 22.9108 449.351 22.9822 449.141 22.9741C448.931 22.966 448.732 22.8789 448.584 22.7303C448.435 22.5817 448.348 22.3825 448.34 22.1725C448.332 21.9625 448.403 21.7572 448.54 21.5975Z" fill="#FFDD00"/>
<path d="M41.3547 182.929L43.1028 181.816C43.2693 181.69 43.3823 181.506 43.4193 181.3C43.4564 181.094 43.4149 180.882 43.303 180.705C43.1911 180.529 43.0169 180.4 42.815 180.346C42.6131 180.292 42.3982 180.315 42.2127 180.412L40.4646 181.524C40.3622 181.578 40.2719 181.652 40.1995 181.742C40.1272 181.832 40.0743 181.936 40.0443 182.047C40.0143 182.159 40.0077 182.276 40.0251 182.39C40.0425 182.504 40.0834 182.613 40.1452 182.711C40.2071 182.809 40.2885 182.892 40.3843 182.957C40.4802 183.021 40.5884 183.065 40.7021 183.086C40.8158 183.106 40.9325 183.103 41.0448 183.076C41.1572 183.049 41.2627 182.999 41.3547 182.929Z" fill="#121926"/>
<path d="M583.89 328.047C581.789 310.463 576.642 290.436 569.257 279.082C568.903 278.452 568.499 277.852 568.05 277.285C568.028 277.259 567.997 277.248 567.974 277.224C566.544 275.292 565.039 273.679 563.461 272.471C552.039 263.73 532.643 261.433 520.039 260.917L519.056 246.399C536.096 242.183 537.198 202.108 525.802 196.601C518.653 193.145 516.269 200.754 501.63 197.056C486.992 193.358 467.578 204.99 473.647 214.677C474.362 215.799 475.36 216.714 476.539 217.329C476.021 220.97 476.217 225.375 479.215 228.167C479.564 236.358 481.212 245.765 486.341 250.644C489.097 253.254 492.61 254.319 496.771 253.813C496.852 254.748 497.481 261.2 497.59 262.132C488.134 263.83 474.097 267.876 463.975 277.499C458.63 282.578 455.1 298.261 452.77 317.412H430.658V145.02C430.655 144.763 430.553 144.517 430.373 144.334C430.193 144.151 429.949 144.045 429.692 144.038L406.201 144.187V59.5033C406.201 48.8492 397.221 39.9376 386.048 40.7025C385.731 40.5843 394.193 40.6691 202.744 40.644C200.268 40.642 197.816 41.128 195.527 42.0742C193.239 43.0204 191.159 44.4083 189.407 46.1586C187.655 47.9088 186.265 49.9871 185.317 52.2747C184.368 54.5623 183.88 57.0144 183.88 59.4908V127.805L163.734 144.187H140.092C139.982 144.186 139.873 144.206 139.771 144.248C139.669 144.289 139.577 144.351 139.499 144.429C139.421 144.506 139.36 144.599 139.319 144.701C139.277 144.802 139.256 144.912 139.258 145.021V164.102L108.423 189.176C106.206 184.298 95.3256 188.203 90.3872 190.175L90.7919 188.193C90.8371 187.984 90.8 187.765 90.6885 187.582C90.5769 187.399 90.3993 187.267 90.1925 187.211L85.6032 185.996C85.9537 180.035 86.2207 175.39 86.3195 173.34C89.55 174.572 99.0568 177.852 103.564 175.755C115.781 170.078 129.377 126.673 129.943 124.83C130.001 124.637 129.988 124.43 129.905 124.246C129.823 124.062 129.677 123.914 129.494 123.83L128.178 123.247C132.107 120.188 136.919 115.29 136.522 109.812C136.439 108.53 136.14 107.498 135.173 106.399C134.791 105.382 134.108 104.367 133.208 103.435C137.937 100.459 145.635 97.4944 146.112 93.9954C146.352 92.225 144.733 90.0667 140.451 90.2989C133.08 90.6146 120.122 96.8922 117.342 100.105C113.545 104.651 110.11 112.243 109.067 114.69L108.201 114.307C108.006 114.214 107.783 114.203 107.58 114.275C107.378 114.347 107.212 114.496 107.119 114.69L94.5329 140.231C83.2905 123.824 71.9521 120.994 71.4181 120.878L65.2754 119.729C65.3032 118.676 65.3672 115.678 65.3881 114.387C66.3059 114.453 67.7244 114.536 69.5866 114.635C75.8072 115.106 72.5877 101.91 70.8577 95.9257C75.3176 91.0582 76.1604 81.2482 74.2218 77.6505C73.226 75.7967 71.8353 75.78 71.0704 75.9483C69.3348 76.3029 68.1041 77.4781 66.9248 78.6115C64.733 80.6975 62.4745 82.8587 56.2706 80.8867C51.4672 79.3569 47.8931 79.5043 45.6346 81.3595C43.511 83.109 43.2412 85.8431 43.2579 87.142C41.1343 87.8165 39.802 89.064 39.2805 90.851C37.1583 98.0354 49.7566 111.831 51.4435 113.639L51.8732 117.283C42.1175 116.052 32.594 118.782 25.4848 124.874C22.1925 127.672 19.5261 131.131 17.6593 135.027C15.2951 139.904 6.04559 180.694 14.362 197.061C14.9614 207.468 15.7777 216.975 16.3938 223.624C16.4158 223.82 16.5065 224.001 16.6499 224.137C16.7932 224.272 16.9798 224.353 17.1767 224.364L12.23 306.48L19.3977 313.687C19.536 313.846 19.6085 314.053 19.6005 314.264C19.5926 314.475 19.5049 314.675 19.355 314.824C19.2051 314.973 19.0043 315.06 18.7931 315.067C18.5819 315.073 18.376 315 18.217 314.86L12.0979 308.707L7.68939 381.891H11.6779L12.0214 384.572L11.7433 400.105C11.7279 400.82 11.9322 401.524 12.3288 402.12H1.94025C1.71895 402.12 1.50671 402.208 1.35023 402.364C1.19374 402.521 1.10583 402.733 1.10583 402.954C1.10583 404.599 -21.97 403.399 568.02 403.789C568.241 403.789 568.453 403.701 568.61 403.544C568.766 403.388 568.854 403.175 568.854 402.954C568.854 402.733 568.766 402.521 568.61 402.364C568.453 402.208 568.241 402.12 568.02 402.12H564.226C565.426 395.243 566.034 387.636 565.895 380.959C571.521 378.294 576.034 374.798 579.764 370.203C581.326 368.27 582.545 365.398 583.424 361.745C583.424 361.745 583.424 361.745 583.424 361.735C585.811 351.913 585.088 338.071 583.89 328.047ZM499.085 259.515C505.458 256.273 509.841 248.111 510.034 247.776C510.148 247.552 510.182 247.296 510.132 247.049C510.081 246.803 509.949 246.581 509.756 246.42C509.562 246.262 509.318 246.175 509.067 246.175C508.816 246.175 508.573 246.262 508.378 246.42C502.016 251.503 493.295 254.964 487.497 249.428C483.017 245.182 481.419 236.912 480.987 229.333C480.923 228.259 480.884 227.202 480.863 226.17C480.927 226.152 480.989 226.126 481.047 226.094C481.137 226.032 483.333 224.603 487.36 226.183C487.464 226.233 487.577 226.262 487.692 226.267C487.807 226.272 487.922 226.253 488.03 226.211C488.137 226.17 488.235 226.106 488.316 226.025C488.398 225.943 488.462 225.846 488.504 225.739C488.546 225.632 488.566 225.517 488.562 225.402C488.557 225.286 488.529 225.173 488.479 225.07C488.429 224.966 488.357 224.874 488.27 224.799C488.182 224.724 488.08 224.668 487.97 224.635C484.43 223.244 481.99 223.855 480.845 224.343C480.845 222.257 480.905 220.324 480.994 218.677C490.59 219.944 504.743 214.192 504.743 214.192C499.048 218.328 507.535 222.479 507.535 222.479C507.535 222.479 506.666 232.227 508.218 232.503C509.609 232.751 511 220.682 515.525 223.532C518.352 225.306 517.292 246.705 517.292 246.705C517.334 246.705 517.372 246.688 517.413 246.684C517.425 246.858 518.5 262.577 518.431 261.583L505.661 275.351L499.334 263.079C499.315 262.911 499.07 259.287 499.085 259.515ZM480.331 319.073L499.277 401.301H383.047L370.001 344.546L369.984 344.496L369.618 342.882L364.124 319.073H480.331ZM13.6597 385.874L23.0538 388.729C23.0538 388.729 23.0691 388.729 23.0761 388.729C23.1478 388.75 23.2223 388.761 23.2972 388.762C23.4617 388.758 23.622 388.71 23.7617 388.623L29.4802 384.775C43.3594 393.034 42.5917 392.694 42.9491 392.733C46.8431 393.607 52.2181 392.176 54.6672 397.183H13.4538L13.6597 385.874ZM49.4576 391.741L43.3052 391.097L30.2688 383.309L30.2117 381.895H35.9553L50.2267 298.104H50.2141C49.1016 297.898 49.8929 298.079 55.6379 265.735C55.651 265.66 55.6792 265.588 55.7208 265.523C55.7623 265.458 55.8164 265.403 55.8798 265.36C55.9432 265.316 56.0146 265.286 56.0899 265.271C56.1651 265.256 56.2427 265.256 56.3179 265.271C56.3931 265.285 56.4648 265.313 56.529 265.355C56.5931 265.397 56.6484 265.451 56.6917 265.514C56.735 265.577 56.7654 265.648 56.7812 265.722C56.797 265.797 56.7979 265.874 56.7838 265.95C50.4422 299.048 51.221 297.977 50.3866 298.089L60.5762 381.896H65.8414L66.1835 384.577C66.0987 400.347 65.4242 400.525 66.4853 402.125H56.457C56.8412 401.549 57.0467 400.871 57.048 400.178C57.0546 398.081 56.2814 396.056 54.8787 394.497C53.476 392.938 51.5439 391.956 49.4576 391.741ZM85.4892 214.198L85.7256 213.032C86.7742 213.579 88.863 214.633 91.4275 215.797L78.5107 226.305C75.3302 222.354 73.258 219.802 73.3039 219.859L80.1308 214.314C80.9388 214.42 84.442 214.847 84.5811 214.847C85.1332 214.847 85.4058 214.58 85.4892 214.198ZM109.647 216.43L110.829 215.456C112.615 215.178 114.809 214.257 114.292 212.643C254.435 98.6181 212.228 132.956 222.828 124.333L227.99 130.731C132.76 208.163 259.78 104.872 91.1827 241.986L86.0371 235.632L104.812 220.358C110.014 221.158 111.387 218.167 109.647 216.43ZM114.514 206.173C119.104 204.724 117.947 201.514 113.819 199.73L216.329 116.301L221.773 123.044C151.795 179.986 165.461 168.883 116.915 208.371C116.841 207.226 115.556 206.572 114.509 206.173H114.514ZM229.044 104.707C229.361 106.561 230.148 108.304 231.331 109.767C232.513 111.23 234.052 112.366 235.799 113.065L228.947 129.262L211.767 107.993L229.044 104.707ZM183.887 269.782H164.663C164.442 269.782 164.229 269.87 164.073 270.027C163.916 270.183 163.829 270.395 163.829 270.617C163.829 270.838 163.916 271.05 164.073 271.207C164.229 271.363 164.442 271.451 164.663 271.451H184.7C184.7 271.451 184.713 271.451 184.72 271.451H387.344C387.566 271.451 387.778 271.363 387.934 271.207C388.091 271.05 388.179 270.838 388.179 270.617C388.179 270.395 388.091 270.183 387.934 270.027C387.778 269.87 387.566 269.782 387.344 269.782H370.14V145.853H412.973V294.648H140.931V203.682L183.887 168.752V269.782ZM269.399 319.569C269.398 318.063 269.843 316.59 270.679 315.336C271.515 314.083 272.704 313.106 274.095 312.528C275.486 311.95 277.017 311.798 278.495 312.091C279.973 312.383 281.331 313.107 282.397 314.172C283.463 315.236 284.19 316.592 284.485 318.07C284.78 319.547 284.631 321.078 284.056 322.471C283.481 323.863 282.505 325.054 281.254 325.892C280.002 326.73 278.529 327.178 277.023 327.179C275.005 327.177 273.069 326.376 271.64 324.95C270.211 323.524 269.405 321.591 269.399 319.572V319.569ZM331.37 344.546L345.957 378.315H263.675L249.088 344.546H331.37ZM67.6257 397.101L67.8301 385.874L77.2465 388.73C77.3183 388.751 77.3928 388.763 77.4677 388.764C77.4829 388.764 77.4955 388.751 77.5122 388.75C77.9155 388.727 83.4838 384.89 83.6521 384.774C97.5312 393.034 96.765 392.701 97.121 392.733C100.972 393.586 106.318 392.199 108.803 397.101H67.6257ZM82.7746 383.352L77.3314 387.018L67.8106 384.123L67.5325 381.891H82.7161L82.7746 383.352ZM83.5172 307.805L79.6552 311.688C79.4962 311.827 79.2904 311.901 79.0791 311.895C78.8679 311.888 78.6671 311.801 78.5172 311.652C78.3673 311.503 78.2796 311.303 78.2717 311.092C78.2637 310.881 78.3362 310.674 78.4745 310.514L82.3365 306.632C82.4114 306.545 82.5032 306.475 82.6064 306.425C82.7096 306.376 82.8218 306.348 82.9362 306.344C83.0505 306.34 83.1645 306.359 83.2711 306.4C83.3777 306.442 83.4746 306.505 83.5557 306.586C83.6369 306.667 83.7006 306.763 83.7428 306.869C83.7851 306.976 83.8051 307.09 83.8014 307.204C83.7978 307.318 83.7707 307.431 83.7218 307.534C83.6729 307.638 83.6033 307.73 83.5172 307.805ZM75.0339 255.122C74.541 255.518 73.9748 255.814 73.3675 255.992C72.7602 256.17 72.1238 256.227 71.4947 256.159C70.8655 256.091 70.2559 255.9 69.7006 255.596C69.1453 255.293 68.6553 254.883 68.2585 254.39C55.9814 239.137 56.3151 239.735 55.9063 238.941C55.4019 237.956 55.2522 236.827 55.4821 235.744C55.7121 234.661 56.3078 233.691 57.169 232.996L67.5589 224.604C85.5671 247.099 46.7875 198.876 85.3974 246.7L75.0339 255.122ZM84.9997 234.34L79.5537 227.602L93.1478 216.548C96.2073 217.88 99.684 219.229 102.688 219.945L84.9997 234.34ZM49.3394 247.872C50.4584 247.87 51.5311 247.425 52.3223 246.634C53.1135 245.843 53.5587 244.77 53.5602 243.651V231.74C53.5563 231.661 53.5685 231.582 53.596 231.508C53.6235 231.434 53.6658 231.367 53.7202 231.31C53.7746 231.252 53.8401 231.207 53.9126 231.176C53.9852 231.145 54.0633 231.129 54.1422 231.129C54.2211 231.129 54.2992 231.145 54.3717 231.176C54.4443 231.207 54.5097 231.252 54.5641 231.31C54.6186 231.367 54.6608 231.434 54.6883 231.508C54.7158 231.582 54.728 231.661 54.7242 231.74V233.314C54.0834 234.338 53.7436 235.522 53.7436 236.73C53.7436 237.938 54.0834 239.121 54.7242 240.145V243.651C54.7223 245.079 54.1544 246.447 53.145 247.457C52.1355 248.466 50.767 249.034 49.3394 249.036C49.2606 249.04 49.1818 249.028 49.1078 249C49.0339 248.973 48.9662 248.93 48.9091 248.876C48.8519 248.821 48.8064 248.756 48.7754 248.683C48.7443 248.611 48.7282 248.533 48.7282 248.454C48.7282 248.375 48.7443 248.297 48.7754 248.224C48.8064 248.152 48.8519 248.086 48.9091 248.032C48.9662 247.978 49.0339 247.935 49.1078 247.908C49.1818 247.88 49.2606 247.868 49.3394 247.872ZM111.225 400.167C111.229 398.072 110.455 396.05 109.052 394.493C107.65 392.936 105.719 391.955 103.635 391.741L97.484 391.097L84.4462 383.309L84.3905 381.895H89.7253L85.7548 296.581L79.174 303.195C79.0994 303.283 79.0076 303.354 78.9042 303.404C78.8008 303.455 78.6881 303.483 78.5732 303.488C78.4583 303.492 78.3436 303.473 78.2365 303.432C78.1293 303.39 78.0319 303.327 77.9504 303.245C77.8689 303.164 77.805 303.067 77.7628 302.96C77.7206 302.853 77.701 302.739 77.7051 302.624C77.7093 302.509 77.7372 302.396 77.787 302.292C77.8368 302.189 77.9076 302.097 77.9947 302.022L85.6505 294.327L83.7161 252.688C82.7426 252.814 81.63 253.059 80.3603 252.966L81.8428 251.751C82.2113 251.751 83.2752 251.532 83.6632 251.532L83.6076 250.336C153.636 193.295 99.2196 237.627 139.266 205.033V343.723C139.266 343.944 139.354 344.157 139.51 344.313C139.667 344.469 139.879 344.557 140.101 344.557H247.275L261.863 378.329H239.186C238.989 378.33 238.797 378.387 238.631 378.494C238.466 378.6 238.334 378.752 238.252 378.931L227.524 401.461C227.439 401.672 227.422 401.904 227.477 402.125H110.627C111.014 401.545 111.219 400.864 111.218 400.167H111.225ZM349.065 344.546H368.279L381.537 402.121H373.728C373.884 401.579 375.373 405.654 349.065 344.546ZM404.543 59.5033V144.187H370.14V59.4936C370.14 50.0174 377.85 42.3045 387.337 42.3045C391.898 42.3086 396.271 44.1217 399.497 47.346C402.722 50.5703 404.537 54.9425 404.543 59.5033ZM185.551 59.4908C185.55 57.2327 185.995 54.9966 186.859 52.9104C187.723 50.8243 188.991 48.9291 190.588 47.3333C192.186 45.7375 194.082 44.4724 196.17 43.6104C198.257 42.7485 200.493 42.3066 202.751 42.3101H379.584C376.279 43.8094 373.474 46.2271 371.504 49.2753C369.533 52.3235 368.481 55.8738 368.471 59.5033C368.471 94.6963 368.471 224.521 368.471 269.787H185.551V167.396C230.859 130.493 229.788 131.537 229.934 131.191L241.738 103.284C241.857 103.001 241.897 102.691 241.854 102.387C241.811 102.083 241.686 101.796 241.493 101.558C241.3 101.319 241.046 101.137 240.758 101.031C240.47 100.926 240.158 100.9 239.857 100.957L210.096 106.617C209.954 106.664 209.82 106.733 209.699 106.82L185.558 126.456L185.551 59.4908ZM140.931 145.853H161.694L140.931 162.736V145.853ZM210.124 108.612L215.286 115.009C173.277 149.198 153.9 164.972 111.995 199.07C109.38 198.22 106.117 197.671 102.855 197.321C105.329 196.091 108.349 193.817 108.715 191.077L210.124 108.612ZM99.0582 197.032C98.8723 197.089 98.7114 197.207 98.6023 197.368C98.4932 197.528 98.4425 197.722 98.4588 197.915C98.5576 198.675 99.1917 198.611 99.3572 198.68H99.4407C111.455 199.591 116.938 202.461 115.608 203.792C114.808 204.559 112.328 205.191 110.196 204.874C109.178 204.719 108.852 206.222 109.847 206.489C111.531 206.99 114.854 207.741 115.271 208.654C114.971 209.669 111.341 210.152 108.012 209.254C106.946 209.007 106.542 210.491 107.496 210.835C108.553 211.279 112.502 212.579 112.707 213C111.907 214.364 106.191 214.013 104.399 213.598C103.508 213.284 102.57 212.844 102.25 213.737C101.93 214.63 102.819 214.89 103.732 215.136C104.829 215.508 105.892 215.97 106.913 216.517C108.821 217.491 108.521 217.883 108.678 218.047C107.377 221.621 89.8713 213.291 86.4669 211.554C87.941 203.443 90.0215 191.969 89.9923 192.136C111.85 183.1 110.358 193.706 99.0582 197.032ZM126.43 122.466L120.182 119.666C124.579 117.056 125.57 113.568 125.78 111.86C127.096 111.824 132.31 114.11 134.838 109.745C134.838 109.812 134.855 109.862 134.855 109.929C135.221 114.956 130.192 119.662 126.43 122.466ZM140.515 91.9469C142.196 91.8801 143.378 92.1471 143.992 92.7465C146.588 95.2498 136.838 99.0826 131.955 102.253C128.942 99.8419 125.064 98.7585 120.949 99.3329C125.516 96.354 134.821 92.1917 140.515 91.9413V91.9469ZM118.339 101.515C118.469 101.557 118.608 101.557 118.738 101.515C127.459 98.8406 134.592 105.369 133.723 108.175C132.399 112.517 126.677 110.044 125.131 110.073C125.008 110.05 124.881 110.056 124.76 110.09C124.639 110.125 124.528 110.187 124.436 110.272C124.345 110.356 124.274 110.46 124.228 110.575C124.182 110.69 124.162 110.814 124.17 110.938C124.17 110.987 124.394 115.806 118.264 118.8L110.595 115.373C111.579 113.054 114.841 105.878 118.339 101.515ZM53.0804 113.197C53.0804 113.024 52.4838 103.796 54.7033 103.013C54.8468 102.952 55.0026 102.927 55.1578 102.939C55.313 102.95 55.4632 102.999 55.5961 103.079C56.2915 103.451 56.8366 104.531 57.3665 105.541C58.3094 107.342 59.2551 107.239 58.9686 105.001C58.7725 103.48 58.365 101.762 59.9115 101.377C61.8265 100.833 62.5761 99.1201 60.013 96.557H69.3084C70.3904 100.37 73.6377 112.967 69.6881 112.967C66.3504 112.784 65.1781 112.699 64.7497 112.647C64.319 112.475 63.928 112.217 63.6004 111.888C63.2728 111.56 63.0156 111.168 62.8445 110.737C62.768 110.551 62.6282 110.398 62.4499 110.306C62.2716 110.213 62.0663 110.187 61.8705 110.232C61.6746 110.276 61.5009 110.389 61.3801 110.549C61.2592 110.709 61.1991 110.907 61.2104 111.108C61.2257 111.283 61.508 114.988 63.6483 117.213C63.6483 117.384 63.5913 120.466 63.594 120.273L60.9976 128.048L53.6269 117.958C53.6033 117.797 53.0442 112.892 53.0804 113.204V113.197ZM14.063 191.654C11.7308 182.861 12.6723 169.698 13.8766 160.642C14.9794 152.566 23.1025 143.536 23.1873 143.449C23.2677 143.369 23.331 143.274 23.3735 143.169C23.4159 143.064 23.4366 142.951 23.4342 142.838C23.4318 142.725 23.4064 142.614 23.3596 142.511C23.3128 142.408 23.2455 142.315 23.1618 142.239C23.0782 142.163 22.9799 142.104 22.8729 142.067C22.766 142.03 22.6526 142.016 22.5398 142.024C22.4269 142.032 22.3169 142.063 22.2164 142.115C22.1159 142.167 22.027 142.239 21.9552 142.326C21.7201 142.586 18.0473 146.671 15.2464 151.889C16.8875 142.73 17.3325 142.468 17.1934 141.995C17.7261 139.492 18.3755 137.384 19.1571 135.751C20.9287 132.067 23.4529 128.795 26.5667 126.146C33.4924 120.218 42.8156 117.654 52.3391 119.053L60.5985 130.341C60.6892 130.465 60.8121 130.561 60.9537 130.619C61.0953 130.677 61.2502 130.695 61.4014 130.671C61.5526 130.647 61.6943 130.582 61.811 130.483C61.9277 130.384 62.0148 130.254 62.0629 130.109L64.9931 121.368C67.6577 121.976 80.2546 121.761 93.7374 142.044L93.3202 148.676C93.2507 149.771 94.914 149.889 94.9821 148.781L95.3993 142.268L108.252 116.162L128.132 125.052C127.78 126.148 127.028 128.455 125.967 131.494L110.862 125.03C110.664 124.963 110.447 124.974 110.255 125.06C110.064 125.146 109.912 125.3 109.829 125.493C109.747 125.686 109.74 125.903 109.811 126.101C109.881 126.299 110.023 126.462 110.209 126.56L125.409 133.053C122.628 140.879 118.178 152.471 113.274 161.457C113.316 156.486 110.878 152.332 110.741 152.106C110.69 152.003 110.618 151.911 110.53 151.837C110.442 151.763 110.339 151.708 110.229 151.676C110.118 151.643 110.002 151.634 109.888 151.649C109.774 151.663 109.664 151.702 109.565 151.761C109.466 151.82 109.381 151.899 109.314 151.993C109.247 152.087 109.201 152.193 109.177 152.306C109.154 152.419 109.154 152.535 109.177 152.648C109.201 152.761 109.248 152.867 109.315 152.961C109.354 153.028 113.238 159.622 110.808 165.669C108.166 169.858 105.451 173.04 102.855 174.237C98.9692 176.045 89.347 172.809 85.9064 171.386C85.9064 171.386 85.9064 171.386 85.8967 171.386L77.6345 167.758C77.5341 167.714 77.426 167.69 77.3164 167.688C77.2068 167.686 77.0978 167.706 76.9957 167.746C76.8936 167.785 76.8004 167.845 76.7214 167.921C76.6424 167.997 76.5791 168.088 76.5352 168.188C76.4913 168.289 76.4676 168.397 76.4654 168.507C76.4633 168.616 76.4827 168.725 76.5227 168.827C76.5627 168.929 76.6224 169.023 76.6984 169.102C76.7744 169.181 76.8652 169.244 76.9656 169.288L84.6882 172.681C84.5992 174.29 84.3405 179.133 83.9566 185.587L44.4817 175.215L45.8293 166.036C45.8516 165.926 45.8513 165.811 45.8282 165.701C45.8051 165.59 45.7598 165.485 45.6951 165.393C45.6303 165.3 45.5474 165.222 45.4514 165.162C45.3555 165.103 45.2484 165.063 45.1367 165.046C45.025 165.029 44.911 165.035 44.8016 165.064C44.6923 165.092 44.5898 165.142 44.5005 165.211C44.4112 165.281 44.3368 165.367 44.282 165.466C44.2271 165.565 44.1928 165.674 44.1813 165.786L42.7809 175.382L38.0289 179.205C37.9359 179.271 37.8573 179.355 37.7981 179.452C37.7389 179.549 37.7002 179.658 37.6844 179.771C37.6687 179.883 37.6762 179.998 37.7066 180.108C37.7369 180.218 37.7894 180.32 37.8608 180.409C37.9323 180.498 38.0211 180.571 38.1219 180.624C38.2227 180.677 38.3333 180.709 38.4469 180.718C38.5605 180.727 38.6747 180.712 38.7824 180.675C38.8901 180.638 38.9891 180.579 39.0733 180.502L43.7363 176.747L77.1951 185.531L73.8393 204.378C73.6446 205.464 75.287 205.75 75.479 204.67L78.8166 185.951L89.0243 188.624C83.6451 214.85 85.3307 206.674 84.0178 213.116C83.6173 213.116 61.8056 210.461 44.3941 207.326C34.8595 205.065 33.039 196.508 32.9612 196.116C32.9181 195.9 32.7917 195.71 32.6094 195.587C32.4271 195.464 32.2037 195.418 31.9877 195.459C31.7718 195.502 31.5816 195.628 31.4584 195.811C31.3352 195.993 31.289 196.217 31.3299 196.433C31.3452 196.515 32.5398 202.21 37.734 206.066C31.6692 204.853 26.1829 203.556 22.1679 202.226C17.6384 200.741 15.2896 196.274 14.063 191.654ZM16.2269 199.979C17.6593 201.761 19.4408 203.076 21.6381 203.809C34.8942 208.173 63.9584 212.239 77.8473 214.032L67.1751 222.706H17.975C17.5091 217.612 16.8096 209.402 16.2269 199.979ZM17.1072 251.735C16.9543 251.712 16.8167 251.63 16.7242 251.506C16.6318 251.382 16.592 251.226 16.6135 251.073C16.6398 250.922 16.7232 250.787 16.8463 250.695C16.9695 250.604 17.1231 250.563 17.2755 250.581L25.0078 251.712C26.2499 251.893 27.5168 251.8 28.7189 251.438C29.9211 251.076 31.0293 250.455 31.9653 249.619C32.9013 248.782 33.6423 247.751 34.1362 246.596C34.63 245.442 34.8645 244.194 34.8233 242.939L34.3588 228.867C34.3562 228.79 34.3687 228.714 34.3956 228.642C34.4226 228.571 34.4634 228.505 34.5157 228.449C34.568 228.394 34.6308 228.349 34.7006 228.317C34.7703 228.286 34.8456 228.268 34.922 228.266C35.0731 228.269 35.2178 228.327 35.3288 228.43C35.4397 228.532 35.5093 228.672 35.5242 228.822L35.9873 242.9C36.0344 244.325 35.7682 245.744 35.2074 247.055C34.6466 248.366 33.8049 249.538 32.7416 250.489C31.6784 251.439 30.4196 252.144 29.0539 252.555C27.6883 252.966 26.2492 253.072 24.8381 252.866L17.1072 251.735ZM13.8724 318.297C14.0288 318.141 14.2406 318.053 14.4614 318.053C14.6822 318.053 14.894 318.141 15.0504 318.297L18.9137 322.18C19.052 322.339 19.1245 322.546 19.1166 322.757C19.1087 322.968 19.0209 323.168 18.871 323.317C18.7212 323.466 18.5203 323.553 18.3091 323.56C18.0979 323.566 17.892 323.493 17.733 323.353L13.8697 319.471C13.7155 319.314 13.6293 319.103 13.6298 318.883C13.6303 318.663 13.7175 318.453 13.8724 318.297ZM28.5457 381.891L28.6041 383.352L23.1609 387.018L13.6416 384.123L13.3634 381.891H28.5457ZM562.546 402.12H538.478V391.671C538.479 391.621 538.469 391.571 538.451 391.525C538.432 391.478 538.404 391.436 538.368 391.401C538.333 391.365 538.29 391.337 538.244 391.318C538.197 391.299 538.148 391.29 538.097 391.29L507.163 391.012L506.992 390.29C517.073 389.805 525.934 389.234 533.725 388.419C543.362 387.513 555.348 385.568 564.244 381.727C564.3 388.562 563.732 395.388 562.546 402.12ZM578.462 369.16C565.035 385.74 537.926 387.142 506.598 388.643L499.923 360.609L545.781 345.573L556.818 352.63C556.909 352.701 557.014 352.751 557.127 352.778C557.239 352.806 557.355 352.809 557.469 352.789C557.583 352.769 557.691 352.726 557.787 352.662C557.883 352.598 557.965 352.515 558.027 352.418C558.089 352.32 558.131 352.211 558.149 352.097C558.167 351.983 558.161 351.867 558.131 351.755C558.102 351.644 558.05 351.539 557.978 351.449C557.906 351.358 557.816 351.284 557.714 351.23L546.672 344.165L544.746 327.733C544.734 327.623 544.699 327.518 544.645 327.421C544.592 327.325 544.519 327.241 544.433 327.173C544.346 327.105 544.247 327.055 544.141 327.025C544.035 326.996 543.924 326.988 543.814 327.001C543.594 327.029 543.394 327.142 543.257 327.316C543.119 327.491 543.056 327.712 543.082 327.933L544.98 344.065L499.529 358.978L489.673 317.617C489.653 317.533 489.605 317.458 489.538 317.405C489.47 317.351 489.387 317.322 489.301 317.321L472.837 317.41C472.073 303.857 473.454 291.869 473.47 291.652C473.486 291.544 473.48 291.433 473.453 291.327C473.425 291.221 473.376 291.122 473.31 291.035C473.243 290.948 473.159 290.875 473.064 290.821C472.968 290.767 472.863 290.733 472.754 290.721C472.645 290.707 472.534 290.715 472.428 290.745C472.322 290.774 472.222 290.824 472.136 290.892C472.049 290.96 471.977 291.045 471.923 291.141C471.869 291.237 471.835 291.343 471.822 291.452C471.722 292.319 470.375 304.056 471.127 317.41H454.473C456.705 298.812 460.085 283.495 465.129 278.699C474.936 269.393 488.605 265.446 497.828 263.798L504.722 277.168C505.764 279.124 507.232 275.465 519.722 262.616C532.142 263.132 551.44 265.363 562.446 273.804C564.302 275.221 566.061 277.266 567.718 279.784C569.599 283.001 573.328 291.744 569.108 305.828C568.79 306.882 570.388 307.358 570.702 306.305C572.849 299.141 573.034 293.306 572.421 288.782C577.25 300.097 580.686 315.169 582.242 328.246C583.246 336.636 583.545 344.314 583.192 350.804C581.157 341.348 575.613 332.376 575.287 331.858C575.162 331.69 574.978 331.575 574.773 331.537C574.567 331.498 574.354 331.538 574.177 331.649C573.999 331.76 573.87 331.934 573.814 332.136C573.759 332.338 573.781 332.553 573.877 332.739C573.984 332.91 584.424 349.8 581.857 361.121C581.043 364.632 579.907 367.368 578.466 369.155L578.462 369.16Z" fill="#121926"/>
</svg>
