<svg width="296" height="12" viewBox="0 0 296 12" fill="none" xmlns="http://www.w3.org/2000/svg">
<path d="M130.456 11.9405C126.116 11.5917 119.893 10.8167 112.479 9.61525C108.292 8.95645 100.456 8.18135 95.8466 7.9876C89.0476 7.67755 84.3229 7.3675 80.0207 6.8637C77.255 6.55365 73.2216 6.3599 66.1922 6.2049C51.8643 5.81735 52.9015 5.77855 47.5237 7.0962C39.1913 9.3786 30.4482 9.6837 21.9794 7.9876C16.9008 7.16555 11.7539 6.854 6.61441 7.0575C1.6976 7.0575 1.08298 7.05746 0.545226 6.82495C0.0074448 6.5924 -0.223024 6.20491 0.276335 5.23605C0.775694 4.26717 1.62079 3.84086 5.53885 3.49207C13.2213 2.75574 19.4058 2.25195 22.7861 2.05818C27.3571 1.7869 47.2164 1.63186 52.6326 1.82563C54.9373 1.82563 61.0449 2.13567 66.1538 2.25193C71.2626 2.36819 76.6404 2.63948 78.2921 2.83325C79.9438 3.02702 83.8235 3.2983 87.2422 3.49207C90.6609 3.68584 94.6559 3.91836 96.1924 4.03462C97.7289 4.15089 100.034 4.26717 101.647 4.26717C103.26 4.26717 107.678 4.26718 111.826 4.69347C122.236 5.31355 131.724 5.4298 143.478 5.1585C151.469 5.27315 159.46 4.91083 167.409 4.07339C172.034 3.28173 176.704 2.78985 181.391 2.60073C184.618 2.60073 188.152 2.25194 189.074 2.17443C189.996 2.09692 193.376 1.94189 196.142 1.82563C198.907 1.70936 202.902 1.4381 205.015 1.20557C210.531 0.355625 216.106 -0.046118 221.686 0.0042015C229.647 0.0767292 237.579 0.999045 245.348 2.75575C252.8 4.22842 258.908 5.3135 261.558 5.5848C264.11 5.8898 266.689 5.8898 269.241 5.5848C270.513 5.3876 271.796 5.25825 273.082 5.19725C274.734 5.19725 276.923 4.84848 278.344 4.6547C279.766 4.46093 281.878 4.2284 283.376 4.07338C284.875 3.91837 286.449 3.8021 286.757 3.76334C286.906 3.74012 287.058 3.74883 287.204 3.78889C287.349 3.82895 287.485 3.89948 287.602 3.99589C287.794 4.22841 287.871 4.22841 288.101 3.99589C288.332 3.76336 288.639 3.60834 288.831 3.99589C288.894 4.05308 288.976 4.08471 289.061 4.08471C289.147 4.08471 289.229 4.05308 289.292 3.99589C289.484 3.99589 289.715 3.99589 289.753 3.99589C289.813 4.04303 289.888 4.06859 289.964 4.06859C290.041 4.06859 290.115 4.04303 290.175 3.99589C290.193 3.97182 290.217 3.95228 290.243 3.93882C290.27 3.92537 290.299 3.91836 290.329 3.91836C290.359 3.91836 290.388 3.92537 290.415 3.93882C290.442 3.95228 290.465 3.97182 290.483 3.99589C290.483 3.99589 290.675 3.6471 290.675 3.99589C290.675 4.34468 290.944 4.34467 292.096 4.38342C292.768 4.39424 293.437 4.47212 294.094 4.61594C294.441 4.78309 294.823 4.8629 295.207 4.84849C295.515 4.84849 296.129 5.89485 295.976 6.04985C294.183 6.4663 292.358 6.72561 290.521 6.82495C287.141 6.9942 283.778 7.40865 280.457 8.06505C277.845 8.49135 274.503 9.03395 273.043 9.22771C271.584 9.4215 269.855 9.7315 269.202 9.88655C263.935 10.642 258.601 10.798 253.299 10.3516C251.417 10.0416 244.58 8.41385 241.43 7.5225C239.125 6.82495 234.016 5.46855 232.403 5.081C230.79 4.69346 223.799 4.0734 219.036 3.72461C214.318 3.51084 209.592 3.80966 204.938 4.61594C200.885 5.13365 196.808 5.4312 192.723 5.5073C185.04 5.81735 175.86 6.3599 174.285 6.5924C173.517 6.5924 171.481 7.05745 169.752 7.40625C161.378 8.8789 158.229 9.53776 156.423 10.0028C154.095 10.6751 151.719 11.1674 149.317 11.4755C146.108 11.8943 142.872 12.0627 139.637 11.9793C135.796 11.9793 131.647 11.9793 130.187 11.9793L130.456 11.9405Z" fill="#FFDD00"/>
</svg>
